<svg width="360" height="360" viewBox="0 0 360 360" fill="none" xmlns="http://www.w3.org/2000/svg">
<path d="M0 18C0 8.05888 8.05888 0 18 0H342C351.941 0 360 8.05888 360 18V342C360 351.941 351.941 360 342 360H18C8.05888 360 0 351.941 0 342V18Z" fill="#121212"/>
<path d="M210 57C210 51.4772 214.477 47 220 47H312C317.523 47 322 51.4772 322 57V91C322 96.5228 317.523 101 312 101H220C214.477 101 210 96.5228 210 91V57Z" fill="white"/>
<path d="M38 57C38 51.4772 42.4772 47 48 47H140C145.523 47 150 51.4772 150 57V91C150 96.5228 145.523 101 140 101H48C42.4772 101 38 96.5228 38 91V57Z" fill="white"/>
<path d="M168 186C168 176.059 176.059 168 186 168H360V342C360 351.941 351.941 360 342 360H168V186Z" fill="white"/>
<path d="M176 193.3C176 183.745 183.745 176 193.3 176H360V342C360 351.941 351.941 360 342 360H176V193.3Z" fill="#121212"/>
</svg>
